mtllib materials.mtl
v 1.371189 -1.575834 0.03428549
v 1.371189 -1.575834 0.08428544
v 1.541189 -1.575834 0.08428544
v 1.541189 -1.575834 0.03428555
v 1.371191 1.574168 0.03428668
v 1.541191 1.574167 0.03428668
v 1.541191 1.574167 0.08428657
v 1.371191 1.574167 0.08428657
v 1.546191 -1.493334 -0.01654798
v 1.546191 -1.493334 0.03345191
v 1.546191 -1.323334 0.03345203
v 1.546191 -1.323334 -0.01654786
v -1.543811 -1.493333 -0.01654881
v -1.543811 -1.323333 -0.01654881
v -1.54381 -1.323333 0.0334512
v -1.54381 -1.493333 0.03345114
v 1.536191 1.076666 -0.01654774
v 1.536191 1.076666 0.03345215
v 1.536191 1.246665 0.03345227
v 1.536191 1.246666 -0.01654762
v -1.533811 1.076668 -0.01654893
v -1.533811 1.246668 -0.01654881
v -1.53381 1.246668 0.03345114
v -1.53381 1.076668 0.03345102
v 1.19619 -1.573334 -0.07654816
v 1.19619 -1.573334 -0.02654821
v 1.36619 -1.573334 -0.02654821
v 1.36619 -1.573334 -0.07654816
v 1.196192 1.576667 -0.07654697
v 1.366192 1.576667 -0.07654697
v 1.366192 1.576666 -0.02654713
v 1.196192 1.576667 -0.02654701
v 1.54119 -0.2858337 -0.01571375
v 1.54119 -0.2858338 0.03428614
v 1.54119 -0.1158339 0.03428626
v 1.54119 -0.1158338 -0.01571363
v -1.538812 -0.2858323 -0.0157147
v -1.538811 -0.1158324 -0.0157147
v -1.538811 -0.1158324 0.03428525
v -1.538811 -0.2858324 0.03428513
v -0.6838093 -1.543334 0.03345186
v -0.6838093 -1.543334 0.08345181
v -0.5138094 -1.543334 0.08345181
v -0.5138092 -1.543334 0.03345191
v -0.6838078 1.606667 0.03345305
v -0.5138078 1.606667 0.03345305
v -0.5138078 1.606666 0.08345294
v -0.6838078 1.606667 0.08345294
v -0.8538094 -1.543334 -0.07654804
v -0.8538094 -1.543334 -0.02654809
v -0.6838095 -1.543334 -0.02654809
v -0.6838093 -1.543334 -0.07654804
v -0.8538079 1.606667 -0.07654685
v -0.6838078 1.606667 -0.07654685
v -0.6838078 1.606666 -0.02654701
v -0.8538079 1.606667 -0.0265469
v -1.013811 -1.543334 0.0234521
v -1.013811 -1.543334 0.07345206
v -0.8438113 -1.543334 0.07345206
v -0.843811 -1.543334 0.02345216
v -1.01381 1.606668 0.0234533
v -0.8438096 1.606667 0.0234533
v -0.8438096 1.606667 0.07345319
v -1.01381 1.606667 0.07345319
v -1.203811 -1.543334 -0.06654829
v -1.203811 -1.543334 -0.01654834
v -1.033811 -1.543334 -0.01654834
v -1.033811 -1.543334 -0.06654829
v -1.20381 1.606667 -0.0665471
v -1.03381 1.606667 -0.0665471
v -1.03381 1.606666 -0.01654726
v -1.20381 1.606667 -0.01654714
v 0.6861906 -1.553334 0.03345191
v 0.6861906 -1.553334 0.08345187
v 0.8561904 -1.553334 0.08345187
v 0.8561904 -1.553334 0.03345197
v 0.686192 1.596667 0.03345311
v 0.8561919 1.596667 0.03345311
v 0.8561919 1.596666 0.083453
v 0.686192 1.596667 0.083453
v 0.8461906 -1.553334 -0.07654816
v 0.8461906 -1.553334 -0.02654821
v 1.016191 -1.553334 -0.02654821
v 1.016191 -1.553334 -0.07654816
v 0.846192 1.596667 -0.07654697
v 1.016192 1.596667 -0.07654697
v 1.016192 1.596666 -0.02654713
v 0.846192 1.596667 -0.02654701
v 0.3461888 -1.533334 0.02345192
v 0.3461888 -1.533334 0.07345188
v 0.5161886 -1.533334 0.07345188
v 0.5161889 -1.533334 0.02345198
v 0.3461902 1.616667 0.02345312
v 0.5161903 1.616667 0.02345312
v 0.5161903 1.616666 0.07345301
v 0.3461902 1.616667 0.07345301
v 0.166189 -1.543334 -0.08654803
v 0.166189 -1.543334 -0.03654808
v 0.3361888 -1.543334 -0.03654808
v 0.336189 -1.543334 -0.08654803
v 0.1661904 1.606667 -0.08654684
v 0.3361905 1.606667 -0.08654684
v 0.3361905 1.606666 -0.03654701
v 0.1661904 1.606667 -0.03654689
v 1.026189 -1.553334 0.01428556
v 1.026189 -1.553334 0.06428552
v 1.196189 -1.553334 0.06428552
v 1.196189 -1.553334 0.01428562
v 1.02619 1.596667 0.01428676
v 1.19619 1.596667 0.01428676
v 1.19619 1.596666 0.06428665
v 1.02619 1.596667 0.06428665
v 0.5061905 -1.553334 -0.07654804
v 0.5061905 -1.553334 -0.02654809
v 0.6761904 -1.553334 -0.02654809
v 0.6761906 -1.553334 -0.07654804
v 0.506192 1.596667 -0.07654685
v 0.676192 1.596667 -0.07654685
v 0.676192 1.596666 -0.02654701
v 0.506192 1.596667 -0.0265469
v -0.5238094 -1.543334 -0.09654802
v -0.5238094 -1.543334 -0.04654807
v -0.3538096 -1.543334 -0.04654807
v -0.3538094 -1.543334 -0.09654802
v -0.523808 1.606667 -0.09654683
v -0.3538079 1.606667 -0.09654683
v -0.3538079 1.606666 -0.046547
v -0.523808 1.606667 -0.04654688
v -0.343811 -1.543334 0.02345198
v -0.343811 -1.543334 0.07345194
v -0.1738112 -1.543334 0.07345194
v -0.173811 -1.543334 0.02345204
v -0.3438096 1.606668 0.02345318
v -0.1738095 1.606667 0.02345318
v -0.1738095 1.606667 0.07345307
v -0.3438096 1.606667 0.07345307
v -0.1738091 -1.553334 -0.08654803
v -0.1738091 -1.553334 -0.03654808
v -0.003809214 -1.553334 -0.03654808
v -0.003808975 -1.553334 -0.08654803
v -0.1738076 1.596667 -0.08654684
v -0.003807545 1.596667 -0.08654684
v -0.003807545 1.596666 -0.03654701
v -0.1738076 1.596667 -0.03654689
v 0.006188869 -1.563334 0.02345198
v 0.006188869 -1.563334 0.07345194
v 0.1761887 -1.563334 0.07345194
v 0.1761889 -1.563334 0.02345204
v 0.0061903 1.586667 0.02345318
v 0.1761904 1.586667 0.02345318
v 0.1761904 1.586666 0.07345307
v 0.0061903 1.586667 0.07345307
v -1.533811 -1.543334 -0.06654793
v -1.533811 -1.543334 -0.01654798
v -1.363811 -1.543334 -0.01654798
v -1.363811 -1.543334 -0.06654793
v -1.533809 1.606668 -0.06654626
v -1.363809 1.606667 -0.06654614
v -1.363809 1.606666 -0.01654631
v -1.533809 1.606667 -0.01654631
v -1.353811 -1.543334 0.02345198
v -1.353811 -1.543334 0.07345188
v -1.183811 -1.543334 0.07345194
v -1.183811 -1.543334 0.02345204
v -1.353809 1.606667 0.02345371
v -1.18381 1.606667 0.02345377
v -1.18381 1.606666 0.07345361
v -1.353809 1.606666 0.07345361
vn -4.768372E-07 -1 -3.576279E-07
vn 1.280693E-06 1 1.466277E-05
vn -1 4.768372E-07 -1.192094E-07
vn 1 -4.768372E-07 1.192094E-07
vn 1.192095E-07 3.576279E-07 -1
vn -1.192095E-07 -3.576279E-07 1
vn 1 -5.057622E-07 1.770368E-13
vn -1 1.309613E-06 1.430514E-05
vn -5.057622E-07 -1 -5.245367E-07
vn 5.057622E-07 1 5.245367E-07
vn 4.423276E-13 5.245367E-07 -1
vn -4.423276E-13 -5.245367E-07 1
vn 1 -6.806078E-07 3.757482E-13
vn -1 1.484453E-06 1.430514E-05
vn -6.806078E-07 -1 -8.742279E-07
vn 6.806078E-07 1 8.742279E-07
vn 9.707545E-13 8.742279E-07 -1
vn -9.707545E-13 -8.742279E-07 1
vn -4.768372E-07 -1 -3.576279E-07
vn 1.280693E-06 1 1.466277E-05
vn -1 4.768372E-07 -1.192094E-07
vn 1 -4.768372E-07 1.192094E-07
vn 1.192095E-07 3.576279E-07 -1
vn -1.192095E-07 -3.576279E-07 1
vn 1 -5.057623E-07 2.398201E-13
vn -1 1.30961E-06 1.430514E-05
vn -5.057623E-07 -1 -6.993824E-07
vn 5.057623E-07 1 6.993824E-07
vn 5.935413E-13 6.993824E-07 -1
vn -5.935413E-13 -6.993824E-07 1
vn -4.768372E-07 -1 -3.576279E-07
vn 1.280693E-06 1 1.466277E-05
vn -1 4.768372E-07 -1.192094E-07
vn 1 -4.768372E-07 1.192094E-07
vn 1.192095E-07 3.576279E-07 -1
vn -1.192095E-07 -3.576279E-07 1
vn -4.768372E-07 -1 -3.576279E-07
vn 1.280693E-06 1 1.466277E-05
vn -1 4.768372E-07 -1.192094E-07
vn 1 -4.768372E-07 1.192094E-07
vn 1.192095E-07 3.576279E-07 -1
vn -1.192095E-07 -3.576279E-07 1
vn -4.768372E-07 -1 -3.576279E-07
vn 1.280693E-06 1 1.466277E-05
vn -1 4.768372E-07 -1.192094E-07
vn 1 -4.768372E-07 1.192094E-07
vn 1.192095E-07 3.576279E-07 -1
vn -1.192095E-07 -3.576279E-07 1
vn -4.768372E-07 -1 -3.576279E-07
vn 1.280693E-06 1 1.466277E-05
vn -1 4.768372E-07 -1.192094E-07
vn 1 -4.768372E-07 1.192094E-07
vn 1.192095E-07 3.576279E-07 -1
vn -1.192095E-07 -3.576279E-07 1
vn -4.768372E-07 -1 -3.576279E-07
vn 1.280693E-06 1 1.466277E-05
vn -1 4.768372E-07 -1.192094E-07
vn 1 -4.768372E-07 1.192094E-07
vn 1.192095E-07 3.576279E-07 -1
vn -1.192095E-07 -3.576279E-07 1
vn -4.768372E-07 -1 -3.576279E-07
vn 1.280693E-06 1 1.466277E-05
vn -1 4.768372E-07 -1.192094E-07
vn 1 -4.768372E-07 1.192094E-07
vn 1.192095E-07 3.576279E-07 -1
vn -1.192095E-07 -3.576279E-07 1
vn -4.768372E-07 -1 -3.576279E-07
vn 1.280693E-06 1 1.466277E-05
vn -1 4.768372E-07 -1.192094E-07
vn 1 -4.768372E-07 1.192094E-07
vn 1.192095E-07 3.576279E-07 -1
vn -1.192095E-07 -3.576279E-07 1
vn -4.768372E-07 -1 -3.576279E-07
vn 1.280693E-06 1 1.466277E-05
vn -1 4.768372E-07 -1.192094E-07
vn 1 -4.768372E-07 1.192094E-07
vn 1.192095E-07 3.576279E-07 -1
vn -1.192095E-07 -3.576279E-07 1
vn -4.768372E-07 -1 -3.576279E-07
vn 1.280693E-06 1 1.466277E-05
vn -1 4.768372E-07 -1.192094E-07
vn 1 -4.768372E-07 1.192094E-07
vn 1.192095E-07 3.576279E-07 -1
vn -1.192095E-07 -3.576279E-07 1
vn -4.768372E-07 -1 -3.576279E-07
vn 1.280693E-06 1 1.466277E-05
vn -1 4.768372E-07 -1.192094E-07
vn 1 -4.768372E-07 1.192094E-07
vn 1.192095E-07 3.576279E-07 -1
vn -1.192095E-07 -3.576279E-07 1
vn -4.768372E-07 -1 -3.576279E-07
vn 1.280693E-06 1 1.466277E-05
vn -1 4.768372E-07 -1.192094E-07
vn 1 -4.768372E-07 1.192094E-07
vn 1.192095E-07 3.576279E-07 -1
vn -1.192095E-07 -3.576279E-07 1
vn -4.768372E-07 -1 -3.576279E-07
vn 1.280693E-06 1 1.466277E-05
vn -1 4.768372E-07 -1.192094E-07
vn 1 -4.768372E-07 1.192094E-07
vn 1.192095E-07 3.576279E-07 -1
vn -1.192095E-07 -3.576279E-07 1
vn -4.768372E-07 -1 -3.576279E-07
vn 1.280693E-06 1 1.466277E-05
vn -1 4.768372E-07 -1.192094E-07
vn 1 -4.768372E-07 1.192094E-07
vn 1.192095E-07 3.576279E-07 -1
vn -1.192095E-07 -3.576279E-07 1
vn -4.768372E-07 -1 -3.576279E-07
vn 1.280693E-06 1 1.466277E-05
vn -1 4.768372E-07 -1.192094E-07
vn 1 -4.768372E-07 1.192094E-07
vn 1.192095E-07 3.576279E-07 -1
vn -1.192095E-07 -3.576279E-07 1
vn -5.960464E-07 -0.9999999 -5.364419E-07
vn 1.399898E-06 0.9999999 1.484159E-05
vn -0.9999999 5.960467E-07 -4.172327E-07
vn 0.9999999 -5.960467E-07 4.172327E-07
vn 4.17233E-07 5.364416E-07 -1
vn -4.17233E-07 -5.364416E-07 1
vn -5.960464E-07 -0.9999999 -5.364419E-07
vn 1.399898E-06 0.9999999 1.484159E-05
vn -0.9999999 5.960467E-07 -4.172327E-07
vn 0.9999999 -5.960467E-07 4.172327E-07
vn 4.17233E-07 5.364416E-07 -1
vn -4.17233E-07 -5.364416E-07 1
usemtl mat18
f 4//1 3//1 2//1 1//1
f 8//2 7//2 6//2 5//2
f 2//3 8//3 5//3 1//3
f 6//4 7//4 3//4 4//4
f 5//5 6//5 4//5 1//5
f 3//6 7//6 8//6 2//6
f 12//7 11//7 10//7 9//7
f 16//8 15//8 14//8 13//8
f 10//9 16//9 13//9 9//9
f 14//10 15//10 11//10 12//10
f 13//11 14//11 12//11 9//11
f 11//12 15//12 16//12 10//12
f 20//13 19//13 18//13 17//13
f 24//14 23//14 22//14 21//14
f 18//15 24//15 21//15 17//15
f 22//16 23//16 19//16 20//16
f 21//17 22//17 20//17 17//17
f 19//18 23//18 24//18 18//18
f 28//19 27//19 26//19 25//19
f 32//20 31//20 30//20 29//20
f 26//21 32//21 29//21 25//21
f 30//22 31//22 27//22 28//22
f 29//23 30//23 28//23 25//23
f 27//24 31//24 32//24 26//24
f 36//25 35//25 34//25 33//25
f 40//26 39//26 38//26 37//26
f 34//27 40//27 37//27 33//27
f 38//28 39//28 35//28 36//28
f 37//29 38//29 36//29 33//29
f 35//30 39//30 40//30 34//30
f 44//31 43//31 42//31 41//31
f 48//32 47//32 46//32 45//32
f 42//33 48//33 45//33 41//33
f 46//34 47//34 43//34 44//34
f 45//35 46//35 44//35 41//35
f 43//36 47//36 48//36 42//36
f 52//37 51//37 50//37 49//37
f 56//38 55//38 54//38 53//38
f 50//39 56//39 53//39 49//39
f 54//40 55//40 51//40 52//40
f 53//41 54//41 52//41 49//41
f 51//42 55//42 56//42 50//42
f 60//43 59//43 58//43 57//43
f 64//44 63//44 62//44 61//44
f 58//45 64//45 61//45 57//45
f 62//46 63//46 59//46 60//46
f 61//47 62//47 60//47 57//47
f 59//48 63//48 64//48 58//48
f 68//49 67//49 66//49 65//49
f 72//50 71//50 70//50 69//50
f 66//51 72//51 69//51 65//51
f 70//52 71//52 67//52 68//52
f 69//53 70//53 68//53 65//53
f 67//54 71//54 72//54 66//54
f 76//55 75//55 74//55 73//55
f 80//56 79//56 78//56 77//56
f 74//57 80//57 77//57 73//57
f 78//58 79//58 75//58 76//58
f 77//59 78//59 76//59 73//59
f 75//60 79//60 80//60 74//60
f 84//61 83//61 82//61 81//61
f 88//62 87//62 86//62 85//62
f 82//63 88//63 85//63 81//63
f 86//64 87//64 83//64 84//64
f 85//65 86//65 84//65 81//65
f 83//66 87//66 88//66 82//66
f 92//67 91//67 90//67 89//67
f 96//68 95//68 94//68 93//68
f 90//69 96//69 93//69 89//69
f 94//70 95//70 91//70 92//70
f 93//71 94//71 92//71 89//71
f 91//72 95//72 96//72 90//72
f 100//73 99//73 98//73 97//73
f 104//74 103//74 102//74 101//74
f 98//75 104//75 101//75 97//75
f 102//76 103//76 99//76 100//76
f 101//77 102//77 100//77 97//77
f 99//78 103//78 104//78 98//78
f 108//79 107//79 106//79 105//79
f 112//80 111//80 110//80 109//80
f 106//81 112//81 109//81 105//81
f 110//82 111//82 107//82 108//82
f 109//83 110//83 108//83 105//83
f 107//84 111//84 112//84 106//84
f 116//85 115//85 114//85 113//85
f 120//86 119//86 118//86 117//86
f 114//87 120//87 117//87 113//87
f 118//88 119//88 115//88 116//88
f 117//89 118//89 116//89 113//89
f 115//90 119//90 120//90 114//90
f 124//91 123//91 122//91 121//91
f 128//92 127//92 126//92 125//92
f 122//93 128//93 125//93 121//93
f 126//94 127//94 123//94 124//94
f 125//95 126//95 124//95 121//95
f 123//96 127//96 128//96 122//96
f 132//97 131//97 130//97 129//97
f 136//98 135//98 134//98 133//98
f 130//99 136//99 133//99 129//99
f 134//100 135//100 131//100 132//100
f 133//101 134//101 132//101 129//101
f 131//102 135//102 136//102 130//102
f 140//103 139//103 138//103 137//103
f 144//104 143//104 142//104 141//104
f 138//105 144//105 141//105 137//105
f 142//106 143//106 139//106 140//106
f 141//107 142//107 140//107 137//107
f 139//108 143//108 144//108 138//108
f 148//109 147//109 146//109 145//109
f 152//110 151//110 150//110 149//110
f 146//111 152//111 149//111 145//111
f 150//112 151//112 147//112 148//112
f 149//113 150//113 148//113 145//113
f 147//114 151//114 152//114 146//114
f 156//115 155//115 154//115 153//115
f 160//116 159//116 158//116 157//116
f 154//117 160//117 157//117 153//117
f 158//118 159//118 155//118 156//118
f 157//119 158//119 156//119 153//119
f 155//120 159//120 160//120 154//120
f 164//121 163//121 162//121 161//121
f 168//122 167//122 166//122 165//122
f 162//123 168//123 165//123 161//123
f 166//124 167//124 163//124 164//124
f 165//125 166//125 164//125 161//125
f 163//126 167//126 168//126 162//126
